<svg fill='#C43535' enable-background="new 0 0 512 512" height="512" viewBox="0 0 512 512" width="512" xmlns="http://www.w3.org/2000/svg">
  <g>
    <path d="m295.378 310h-24.378v18.787l25.606 25.606c5.858 5.858 5.858 15.355 0 21.213-2.928 2.93-6.767 4.394-10.606 4.394s-7.678-1.464-10.606-4.394l-19.394-19.393-19.394 19.393c-5.857 5.858-15.355 5.858-21.213 0s-5.858-15.355 0-21.213l25.607-25.606v-18.787h-24.378c-24.485 0-46.748-11.669-60.622-30.803v217.803c0 8.284 6.716 15 15 15h170c8.284 0 15-6.716 15-15v-217.803c-13.874 19.134-36.137 30.803-60.622 30.803z"/>
    <path d="m33.689 260h92.311v-30h-100.231c2.033 9.977 4.694 20.01 7.92 30z"/>
    <path d="m60.225 320h65.775v-30h-80.867c4.494 10.194 9.546 20.23 15.092 30z"/>
    <path d="m126 401.276v-51.276h-46.562c13.79 19.171 29.5 36.618 46.562 51.276z"/>
    <path d="m119.645 194.502c-8.056-20.139-27.198-34.011-48.884-34.489-17.261-.38-33.027 7.444-43.182 20.246-4.4 5.547-6.527 12.587-6.012 19.648l.008.093h100.269z"/>
    <path d="m386 320h65.775c5.546-9.77 10.598-19.806 15.092-30h-80.867z"/>
    <path d="m386 260h92.311c3.226-9.99 5.886-20.023 7.919-30h-100.23z"/>
    <path d="m484.42 180.259c-10.154-12.802-25.92-20.626-43.182-20.246-21.686.478-40.828 14.349-48.884 34.489l-2.198 5.498h100.269c.002-.031.005-.062.007-.093.515-7.061-1.612-14.101-6.012-19.648z"/>
    <path d="m386 401.276c17.062-14.657 32.772-32.104 46.562-51.276h-46.562z"/>
    <path d="m485.186 141.725c-10.058-36.392-32.948-68.596-66.886-93.217-43.118-31.281-100.757-48.508-162.3-48.508s-119.182 17.227-162.301 48.508c-33.938 24.621-56.828 56.824-66.886 93.217 12.598-7.49 27.257-11.725 42.745-11.725 34.382 0 64.848 20.627 77.617 52.549l27.666 69.163c6.873 17.184 23.273 28.288 41.781 28.288h78.756c18.508 0 34.908-11.104 41.781-28.288l27.666-69.163c12.769-31.922 43.235-52.549 77.617-52.549 15.488 0 30.147 4.235 42.744 11.725zm-274.186 48.275c0 8.284-6.716 15-15 15s-15-6.716-15-15v-25c0-8.284 6.716-15 15-15s15 6.716 15 15zm120 0c0 8.284-6.716 15-15 15s-15-6.716-15-15v-25c0-8.284 6.716-15 15-15s15 6.716 15 15z"/>
  </g>
</svg>