
<svg version="1.0" xmlns="http://www.w3.org/2000/svg"
 width="400.000000pt" height="300.000000pt" viewBox="0 0 400.000000 300.000000">
  <g transform="translate(-120.000000,360.000000) scale(0.15,-0.15)"
  fill="#000" stroke="none">
    <path d="M1907 2410 c-312 -38 -603 -265 -717 -561 -85 -220 -90 -424 -16
    -642 80 -236 268 -443 489 -541 294 -130 628 -101 895 78 88 60 217 189 209
    210 -9 23 -38 20 -91 -10 -185 -103 -464 -132 -666 -69 -221 70 -366 189 -451
    370 -45 96 -59 161 -59 263 0 198 103 364 274 447 209 100 418 59 605 -119 47
    -45 103 -94 124 -110 60 -44 73 -74 97 -233 21 -136 22 -147 7 -179 -33 -69
    -120 -94 -186 -53 -47 28 -159 120 -198 160 -41 43 -53 77 -53 146 0 89 -17
    112 -162 218 -112 82 -136 95 -170 95 -61 0 -116 -34 -139 -84 -19 -43 -19
    -45 1 -177 11 -74 25 -148 30 -165 11 -33 67 -91 116 -121 17 -10 53 -47 80
    -83 100 -132 251 -210 405 -210 66 0 190 30 251 61 123 62 225 180 269 309 29
    85 31 244 5 340 -70 257 -261 482 -503 592 -125 56 -309 84 -446 68z m167
    -732 c8 -13 7 -21 -1 -29 -18 -18 -63 5 -63 31 0 17 5 21 26 18 15 -2 32 -11
    38 -20z m-274 -138 c14 -27 3 -62 -18 -58 -27 5 -29 78 -3 78 6 0 15 -9 21
    -20z"/>
    <path d="M2517 1614 c-12 -13 -7 -51 8 -64 22 -18 37 0 33 36 -3 28 -26 43
    -41 28z"/>
    <path d="M2240 1442 c0 -25 19 -42 47 -42 28 0 30 21 5 43 -25 22 -52 22 -52
    -1z"/>
  </g>
</svg>
