<svg version="1.0" xmlns="http://www.w3.org/2000/svg"
 width="1118.000000pt" height="1280.000000pt" viewBox="0 0 1118.000000 1280.000000">
  <g transform="translate(0.000000,1280.000000) scale(0.100000,-0.100000)"
  fill="#000" stroke="none">
    <path fill="#D83030" d="M5235 12284 c-27 -2 -120 -8 -205 -14 -283 -21 -667 -76 -900 -131
    -47 -11 -105 -24 -130 -30 -245 -54 -649 -188 -935 -309 -124 -52 -421 -200
    -535 -267 -177 -103 -427 -272 -530 -359 -175 -148 -353 -314 -372 -347 -12
    -22 -17 -25 107 59 259 174 552 323 927 470 1111 435 2458 559 3603 333 820
    -162 1451 -460 1915 -906 104 -100 269 -297 341 -408 48 -74 63 -100 107 -180
    340 -628 405 -1431 186 -2320 -149 -606 -457 -1290 -813 -1810 -91 -133 -94
    -137 -155 -220 -80 -109 -448 -561 -475 -585 -3 -3 -35 -39 -71 -80 -36 -41
    -81 -93 -101 -115 -44 -49 -174 -196 -341 -386 -69 -79 -190 -220 -268 -314
    -78 -93 -149 -179 -159 -190 -132 -159 -372 -491 -482 -670 -435 -704 -583
    -1325 -473 -1985 49 -295 154 -586 327 -909 91 -171 119 -204 63 -76 -308 707
    -230 1495 226 2280 45 77 84 142 87 145 4 3 28 39 56 80 130 195 310 421 511
    640 23 25 59 65 79 90 21 25 40 47 44 50 6 5 122 135 177 199 43 51 169 196
    244 281 70 79 295 344 399 470 34 41 72 86 83 99 20 24 214 263 268 331 15 19
    47 60 72 90 48 60 172 223 228 300 19 26 69 95 111 152 235 321 460 672 641
    997 64 114 227 450 278 571 217 514 321 959 336 1445 19 568 -121 1117 -426
    1675 -34 62 -143 235 -173 275 -243 324 -461 542 -781 781 -151 112 -499 306
    -721 401 -472 202 -1000 328 -1610 383 -119 11 -664 21 -760 14z"/>
    <path d="M4470 11564 c-581 -32 -1081 -128 -1530 -296 -612 -228 -993 -525
    -1195 -933 -100 -203 -151 -388 -185 -675 -10 -91 -28 -208 -39 -261 -41 -198
    -135 -443 -238 -623 -96 -167 -122 -223 -137 -291 -42 -196 -24 -320 63 -434
    21 -28 28 -53 37 -135 18 -153 66 -275 167 -425 72 -107 261 -294 360 -356
    l32 -20 -18 25 c-123 172 -168 268 -194 414 -15 84 -15 110 -5 193 32 249 126
    379 412 568 227 150 546 306 890 433 324 120 616 192 659 163 32 -21 -394
    -973 -575 -1287 -92 -160 -185 -267 -294 -340 -80 -53 -128 -69 -210 -69 -65
    0 -81 4 -118 28 -24 15 -45 34 -48 41 -3 8 15 56 39 107 35 75 46 90 52 74 38
    -109 110 -200 149 -189 33 9 109 58 108 69 0 5 -23 17 -50 26 -58 20 -146 75
    -180 112 -29 30 -29 30 45 186 156 331 252 493 390 659 130 156 342 334 486
    408 49 26 22 27 -60 3 -216 -62 -450 -226 -630 -442 -97 -116 -162 -215 -344
    -519 -83 -139 -153 -255 -155 -257 -2 -2 -17 12 -35 30 -125 134 -189 338
    -174 558 l6 103 -38 -28 c-59 -43 -111 -94 -151 -148 l-36 -49 18 -71 c44
    -172 163 -327 304 -397 39 -18 71 -38 71 -43 1 -11 -123 -185 -191 -269 -72
    -88 -200 -211 -291 -279 -139 -103 -272 -168 -434 -212 l-88 -25 60 0 c79 -1
    258 16 370 35 76 12 188 46 270 80 34 14 -85 -116 -150 -164 -118 -87 -260
    -142 -414 -161 -46 -6 -87 -14 -90 -17 -3 -3 68 -4 159 -1 195 5 278 24 415
    91 168 83 270 189 399 416 36 63 69 122 74 130 7 12 14 6 30 -25 61 -120 193
    -164 405 -136 183 25 397 130 694 343 217 155 565 363 832 498 84 42 85 42
    115 25 99 -57 194 -205 246 -386 24 -83 51 -282 61 -449 20 -357 -18 -790
    -121 -1385 -88 -506 -106 -691 -97 -1015 13 -449 99 -789 271 -1067 51 -84
    139 -193 154 -193 4 0 8 43 9 96 15 558 586 1549 1478 2564 319 363 514 649
    720 1055 335 663 466 1303 369 1800 -131 672 -572 1019 -1424 1121 -264 32
    -722 22 -1075 -22 -208 -26 -592 -94 -670 -119 -57 -18 68 40 190 88 393 154
    706 244 1140 327 28 5 104 16 170 25 636 81 1149 -3 1519 -249 285 -189 518
    -517 623 -876 193 -660 33 -1497 -462 -2411 -166 -305 -393 -657 -600 -930
    -27 -36 -61 -80 -75 -99 -175 -233 -484 -588 -786 -900 -99 -103 -147 -154
    -249 -271 -52 -58 -152 -186 -213 -272 -187 -263 -305 -508 -369 -762 -25
    -100 -28 -126 -27 -285 0 -149 4 -187 22 -255 38 -136 132 -308 203 -370 l22
    -20 -7 20 c-38 104 -52 312 -27 430 24 118 66 232 136 370 151 296 356 563
    800 1044 33 36 65 70 70 77 9 10 244 257 441 464 202 212 267 281 394 420 431
    470 643 737 847 1065 394 633 622 1273 694 1945 16 143 16 521 0 655 -68 589
    -270 1046 -626 1414 -273 282 -632 493 -1066 624 -798 242 -1714 131 -2590
    -313 -144 -73 -291 -157 -387 -222 -41 -27 -75 -48 -78 -46 -10 11 140 211
    229 304 242 253 548 442 938 578 120 42 396 116 435 116 11 0 25 4 32 9 15 9
    -85 24 -321 46 -145 14 -627 26 -757 19z m-555 -451 c-119 -61 -344 -193 -495
    -291 -79 -52 -237 -173 -291 -224 l-47 -44 -11 -119 c-23 -254 -100 -416 -276
    -583 -156 -149 -353 -251 -543 -281 -64 -10 -57 -1 20 28 144 52 292 142 405
    246 159 145 229 318 203 499 -6 43 -16 90 -21 105 -10 26 -11 26 -25 6 -8 -11
    -22 -29 -32 -40 -9 -11 -64 -77 -121 -145 -122 -145 -330 -360 -449 -463 -78
    -68 -262 -191 -271 -182 -2 3 13 23 33 45 65 72 184 238 351 490 228 341 309
    438 465 554 184 136 484 261 865 359 77 20 165 43 195 51 85 22 101 18 45 -11z"/>
  </g>
</svg>
